<svg width="130" height="54" viewBox="0 0 130 54" fill="none" xmlns="http://www.w3.org/2000/svg">
<rect width="130" height="54" rx="3" fill="white"/>
<path d="M34.4258 33.1602V35H25.8945V33.1602H34.4258ZM26.3398 17.9375V35H24.0781V17.9375H26.3398ZM36.1133 28.8008V28.5312C36.1133 27.6172 36.2461 26.7695 36.5117 25.9883C36.7773 25.1992 37.1602 24.5156 37.6602 23.9375C38.1602 23.3516 38.7656 22.8984 39.4766 22.5781C40.1875 22.25 40.9844 22.0859 41.8672 22.0859C42.7578 22.0859 43.5586 22.25 44.2695 22.5781C44.9883 22.8984 45.5977 23.3516 46.0977 23.9375C46.6055 24.5156 46.9922 25.1992 47.2578 25.9883C47.5234 26.7695 47.6562 27.6172 47.6562 28.5312V28.8008C47.6562 29.7148 47.5234 30.5625 47.2578 31.3438C46.9922 32.125 46.6055 32.8086 46.0977 33.3945C45.5977 33.9727 44.9922 34.4258 44.2812 34.7539C43.5781 35.0742 42.7812 35.2344 41.8906 35.2344C41 35.2344 40.1992 35.0742 39.4883 34.7539C38.7773 34.4258 38.168 33.9727 37.6602 33.3945C37.1602 32.8086 36.7773 32.125 36.5117 31.3438C36.2461 30.5625 36.1133 29.7148 36.1133 28.8008ZM38.2812 28.5312V28.8008C38.2812 29.4336 38.3555 30.0312 38.5039 30.5938C38.6523 31.1484 38.875 31.6406 39.1719 32.0703C39.4766 32.5 39.8555 32.8398 40.3086 33.0898C40.7617 33.332 41.2891 33.4531 41.8906 33.4531C42.4844 33.4531 43.0039 33.332 43.4492 33.0898C43.9023 32.8398 44.2773 32.5 44.5742 32.0703C44.8711 31.6406 45.0938 31.1484 45.2422 30.5938C45.3984 30.0312 45.4766 29.4336 45.4766 28.8008V28.5312C45.4766 27.9062 45.3984 27.3164 45.2422 26.7617C45.0938 26.1992 44.8672 25.7031 44.5625 25.2734C44.2656 24.8359 43.8906 24.4922 43.4375 24.2422C42.9922 23.9922 42.4688 23.8672 41.8672 23.8672C41.2734 23.8672 40.75 23.9922 40.2969 24.2422C39.8516 24.4922 39.4766 24.8359 39.1719 25.2734C38.875 25.7031 38.6523 26.1992 38.5039 26.7617C38.3555 27.3164 38.2812 27.9062 38.2812 28.5312ZM57.8516 32.832V26.3047C57.8516 25.8047 57.75 25.3711 57.5469 25.0039C57.3516 24.6289 57.0547 24.3398 56.6562 24.1367C56.2578 23.9336 55.7656 23.832 55.1797 23.832C54.6328 23.832 54.1523 23.9258 53.7383 24.1133C53.332 24.3008 53.0117 24.5469 52.7773 24.8516C52.5508 25.1562 52.4375 25.4844 52.4375 25.8359H50.2695C50.2695 25.3828 50.3867 24.9336 50.6211 24.4883C50.8555 24.043 51.1914 23.6406 51.6289 23.2812C52.0742 22.9141 52.6055 22.625 53.2227 22.4141C53.8477 22.1953 54.543 22.0859 55.3086 22.0859C56.2305 22.0859 57.043 22.2422 57.7461 22.5547C58.457 22.8672 59.0117 23.3398 59.4102 23.9727C59.8164 24.5977 60.0195 25.3828 60.0195 26.3281V32.2344C60.0195 32.6562 60.0547 33.1055 60.125 33.582C60.2031 34.0586 60.3164 34.4688 60.4648 34.8125V35H58.2031C58.0938 34.75 58.0078 34.418 57.9453 34.0039C57.8828 33.582 57.8516 33.1914 57.8516 32.832ZM58.2266 27.3125L58.25 28.8359H56.0586C55.4414 28.8359 54.8906 28.8867 54.4062 28.9883C53.9219 29.082 53.5156 29.2266 53.1875 29.4219C52.8594 29.6172 52.6094 29.8633 52.4375 30.1602C52.2656 30.4492 52.1797 30.7891 52.1797 31.1797C52.1797 31.5781 52.2695 31.9414 52.4492 32.2695C52.6289 32.5977 52.8984 32.8594 53.2578 33.0547C53.625 33.2422 54.0742 33.3359 54.6055 33.3359C55.2695 33.3359 55.8555 33.1953 56.3633 32.9141C56.8711 32.6328 57.2734 32.2891 57.5703 31.8828C57.875 31.4766 58.0391 31.082 58.0625 30.6992L58.9883 31.7422C58.9336 32.0703 58.7852 32.4336 58.543 32.832C58.3008 33.2305 57.9766 33.6133 57.5703 33.9805C57.1719 34.3398 56.6953 34.6406 56.1406 34.8828C55.5938 35.1172 54.9766 35.2344 54.2891 35.2344C53.4297 35.2344 52.6758 35.0664 52.0273 34.7305C51.3867 34.3945 50.8867 33.9453 50.5273 33.3828C50.1758 32.8125 50 32.1758 50 31.4727C50 30.793 50.1328 30.1953 50.3984 29.6797C50.6641 29.1562 51.0469 28.7227 51.5469 28.3789C52.0469 28.0273 52.6484 27.7617 53.3516 27.582C54.0547 27.4023 54.8398 27.3125 55.707 27.3125H58.2266ZM71.4219 32.5391V17H73.6016V35H71.6094L71.4219 32.5391ZM62.8906 28.8008V28.5547C62.8906 27.5859 63.0078 26.707 63.2422 25.918C63.4844 25.1211 63.8242 24.4375 64.2617 23.8672C64.707 23.2969 65.2344 22.8594 65.8438 22.5547C66.4609 22.2422 67.1484 22.0859 67.9062 22.0859C68.7031 22.0859 69.3984 22.2266 69.9922 22.5078C70.5938 22.7812 71.1016 23.1836 71.5156 23.7148C71.9375 24.2383 72.2695 24.8711 72.5117 25.6133C72.7539 26.3555 72.9219 27.1953 73.0156 28.1328V29.2109C72.9297 30.1406 72.7617 30.9766 72.5117 31.7188C72.2695 32.4609 71.9375 33.0938 71.5156 33.6172C71.1016 34.1406 70.5938 34.543 69.9922 34.8242C69.3906 35.0977 68.6875 35.2344 67.8828 35.2344C67.1406 35.2344 66.4609 35.0742 65.8438 34.7539C65.2344 34.4336 64.707 33.9844 64.2617 33.4062C63.8242 32.8281 63.4844 32.1484 63.2422 31.3672C63.0078 30.5781 62.8906 29.7227 62.8906 28.8008ZM65.0703 28.5547V28.8008C65.0703 29.4336 65.1328 30.0273 65.2578 30.582C65.3906 31.1367 65.5938 31.625 65.8672 32.0469C66.1406 32.4688 66.4883 32.8008 66.9102 33.043C67.332 33.2773 67.8359 33.3945 68.4219 33.3945C69.1406 33.3945 69.7305 33.2422 70.1914 32.9375C70.6602 32.6328 71.0352 32.2305 71.3164 31.7305C71.5977 31.2305 71.8164 30.6875 71.9727 30.1016V27.2773C71.8789 26.8477 71.7422 26.4336 71.5625 26.0352C71.3906 25.6289 71.1641 25.2695 70.8828 24.957C70.6094 24.6367 70.2695 24.3828 69.8633 24.1953C69.4648 24.0078 68.9922 23.9141 68.4453 23.9141C67.8516 23.9141 67.3398 24.0391 66.9102 24.2891C66.4883 24.5312 66.1406 24.8672 65.8672 25.2969C65.5938 25.7188 65.3906 26.2109 65.2578 26.7734C65.1328 27.3281 65.0703 27.9219 65.0703 28.5547ZM79.332 22.3203V35H77.1523V22.3203H79.332ZM76.9883 18.957C76.9883 18.6055 77.0938 18.3086 77.3047 18.0664C77.5234 17.8242 77.8438 17.7031 78.2656 17.7031C78.6797 17.7031 78.9961 17.8242 79.2148 18.0664C79.4414 18.3086 79.5547 18.6055 79.5547 18.957C79.5547 19.293 79.4414 19.582 79.2148 19.8242C78.9961 20.0586 78.6797 20.1758 78.2656 20.1758C77.8438 20.1758 77.5234 20.0586 77.3047 19.8242C77.0938 19.582 76.9883 19.293 76.9883 18.957ZM84.9805 25.0273V35H82.8125V22.3203H84.8633L84.9805 25.0273ZM84.4648 28.1797L83.5625 28.1445C83.5703 27.2773 83.6992 26.4766 83.9492 25.7422C84.1992 25 84.5508 24.3555 85.0039 23.8086C85.457 23.2617 85.9961 22.8398 86.6211 22.543C87.2539 22.2383 87.9531 22.0859 88.7188 22.0859C89.3438 22.0859 89.9062 22.1719 90.4062 22.3438C90.9062 22.5078 91.332 22.7734 91.6836 23.1406C92.043 23.5078 92.3164 23.9844 92.5039 24.5703C92.6914 25.1484 92.7852 25.8555 92.7852 26.6914V35H90.6055V26.668C90.6055 26.0039 90.5078 25.4727 90.3125 25.0742C90.1172 24.668 89.832 24.375 89.457 24.1953C89.082 24.0078 88.6211 23.9141 88.0742 23.9141C87.5352 23.9141 87.043 24.0273 86.5977 24.2539C86.1602 24.4805 85.7812 24.793 85.4609 25.1914C85.1484 25.5898 84.9023 26.0469 84.7227 26.5625C84.5508 27.0703 84.4648 27.6094 84.4648 28.1797ZM104.293 22.3203H106.262V34.7305C106.262 35.8477 106.035 36.8008 105.582 37.5898C105.129 38.3789 104.496 38.9766 103.684 39.3828C102.879 39.7969 101.949 40.0039 100.895 40.0039C100.457 40.0039 99.9414 39.9336 99.3477 39.793C98.7617 39.6602 98.1836 39.4297 97.6133 39.1016C97.0508 38.7812 96.5781 38.3477 96.1953 37.8008L97.332 36.5117C97.8633 37.1523 98.418 37.5977 98.9961 37.8477C99.582 38.0977 100.16 38.2227 100.73 38.2227C101.418 38.2227 102.012 38.0938 102.512 37.8359C103.012 37.5781 103.398 37.1953 103.672 36.6875C103.953 36.1875 104.094 35.5703 104.094 34.8359V25.1094L104.293 22.3203ZM95.5625 28.8008V28.5547C95.5625 27.5859 95.6758 26.707 95.9023 25.918C96.1367 25.1211 96.4688 24.4375 96.8984 23.8672C97.3359 23.2969 97.8633 22.8594 98.4805 22.5547C99.0977 22.2422 99.793 22.0859 100.566 22.0859C101.363 22.0859 102.059 22.2266 102.652 22.5078C103.254 22.7812 103.762 23.1836 104.176 23.7148C104.598 24.2383 104.93 24.8711 105.172 25.6133C105.414 26.3555 105.582 27.1953 105.676 28.1328V29.2109C105.59 30.1406 105.422 30.9766 105.172 31.7188C104.93 32.4609 104.598 33.0938 104.176 33.6172C103.762 34.1406 103.254 34.543 102.652 34.8242C102.051 35.0977 101.348 35.2344 100.543 35.2344C99.7852 35.2344 99.0977 35.0742 98.4805 34.7539C97.8711 34.4336 97.3477 33.9844 96.9102 33.4062C96.4727 32.8281 96.1367 32.1484 95.9023 31.3672C95.6758 30.5781 95.5625 29.7227 95.5625 28.8008ZM97.7305 28.5547V28.8008C97.7305 29.4336 97.793 30.0273 97.918 30.582C98.0508 31.1367 98.25 31.625 98.5156 32.0469C98.7891 32.4688 99.1367 32.8008 99.5586 33.043C99.9805 33.2773 100.484 33.3945 101.07 33.3945C101.789 33.3945 102.383 33.2422 102.852 32.9375C103.32 32.6328 103.691 32.2305 103.965 31.7305C104.246 31.2305 104.465 30.6875 104.621 30.1016V27.2773C104.535 26.8477 104.402 26.4336 104.223 26.0352C104.051 25.6289 103.824 25.2695 103.543 24.957C103.27 24.6367 102.93 24.3828 102.523 24.1953C102.117 24.0078 101.641 23.9141 101.094 23.9141C100.5 23.9141 99.9883 24.0391 99.5586 24.2891C99.1367 24.5312 98.7891 24.8672 98.5156 25.2969C98.25 25.7188 98.0508 26.2109 97.918 26.7734C97.793 27.3281 97.7305 27.9219 97.7305 28.5547Z" fill="black"/>
</svg>
